<svg viewBox="0 0 100 100" xmlns="http://www.w3.org/2000/svg">
  <!-- Braço esquerdo -->
  <path d="M 22 50 Q 12 45 8 38" fill="none" stroke="#1A1A1A" stroke-width="3.5" stroke-linecap="round"/>
  <!-- Braço direito -->
  <path d="M 78 50 Q 88 45 92 38" fill="none" stroke="#1A1A1A" stroke-width="3.5" stroke-linecap="round"/>
  <!-- Perna esquerda -->
  <path d="M 38 76 L 32 92 L 24 92" fill="none" stroke="#1A1A1A" stroke-width="4" stroke-linecap="round" stroke-linejoin="round"/>
  <!-- Perna direita -->
  <path d="M 62 76 L 68 92 L 76 92" fill="none" stroke="#1A1A1A" stroke-width="4" stroke-linecap="round" stroke-linejoin="round"/>
  
  <!-- Corpo da Bola -->
  <circle cx="50" cy="50" r="30" fill="#FFFFFF" stroke="#1A1A1A" stroke-width="4" />
  
  <!-- Gomos da Bola de Futebol -->
  <!-- Pentágono Central -->
  <polygon points="50,38 58,44 55,54 45,54 42,44" fill="#1A1A1A" />
  <!-- Linhas pros gomos externos -->
  <line x1="50" y1="38" x2="50" y2="20" stroke="#1A1A1A" stroke-width="3" />
  <line x1="58" y1="44" x2="76" y2="35" stroke="#1A1A1A" stroke-width="3" />
  <line x1="55" y1="54" x2="68" y2="70" stroke="#1A1A1A" stroke-width="3" />
  <line x1="45" y1="54" x2="32" y2="70" stroke="#1A1A1A" stroke-width="3" />
  <line x1="42" y1="44" x2="24" y2="35" stroke="#1A1A1A" stroke-width="3" />
  
  <!-- Olhos expressivos -->
  <circle cx="43" cy="44" r="5.5" fill="#FFFFFF" stroke="#1A1A1A" stroke-width="1.5" />
  <circle cx="44" cy="44" r="2.5" fill="#1A1A1A" />
  <circle cx="57" cy="44" r="5.5" fill="#FFFFFF" stroke="#1A1A1A" stroke-width="1.5" />
  <circle cx="56" cy="44" r="2.5" fill="#1A1A1A" />
  
  <!-- Sorriso amigável -->
  <path d="M 44 59 Q 50 66 56 59" fill="none" stroke="#1A1A1A" stroke-width="3.5" stroke-linecap="round" />
</svg>
